<?xml version="1.0" standalone="no"?><!DOCTYPE svg PUBLIC "-//W3C//DTD SVG 1.1//EN" "http://www.w3.org/Graphics/SVG/1.1/DTD/svg11.dtd"><svg t="1690863704254" class="icon" viewBox="0 0 1024 1024" version="1.1" xmlns="http://www.w3.org/2000/svg" p-id="6314" xmlns:xlink="http://www.w3.org/1999/xlink" width="200" height="200"><path d="M511.4 904.46c-217.59-0.52-388.99-173.84-392.58-385.44-3.84-226.53 180.29-399.63 390.99-399.87 220.09-0.25 395.3 179.25 394.09 393.82-1.22 216.54-175.55 391.22-392.5 391.49zM359.06 690.22c0.37 10.1 5.13 17.4 12.87 22.54 8.97 5.96 18.48 5.85 27.81 0.22 34.24-20.65 68.59-41.13 102.65-62.07 5.51-3.38 9.57-3.64 15.06-0.36 34.31 20.54 68.88 40.63 103.14 61.24 10.77 6.48 20.92 7.29 31.04-0.36 9.97-7.54 12.71-17.59 9.84-29.7-7.92-33.45-14.28-67.33-23.87-100.28-4.96-17.04-1.7-27.12 11.76-38.13 28.4-23.24 55.67-47.91 82.6-72.87 4.78-4.43 7.97-13.09 7.9-19.76-0.17-15.07-8.91-22.86-25.45-24.38-37.86-3.49-75.73-7.1-113.67-9.3-11.24-0.65-16.11-5.26-19.98-14.68-14.7-35.77-29.84-71.35-45.01-106.92-1.48-3.47-3.73-7.07-6.6-9.41-15.07-12.31-36-6.78-43.6 11.4-14.54 34.77-29.1 69.54-43.25 104.46-3.98 9.83-9.15 15.9-20.92 14.97-7.76-0.61-15.69 0.79-23.53 1.48-30.36 2.66-60.73 5.29-91.07 8.16-10.93 1.04-19.59 5.97-22.7 17.24-2.97 10.78-1.98 20.67 7.77 28.35 5.39 4.24 9.98 9.48 15.12 14.07 25.66 22.92 51.55 45.61 76.88 68.9 2.81 2.59 4.27 8.77 3.5 12.74-2.85 14.76-7.05 29.25-10.44 43.92-6.09 26.16-11.93 52.36-17.85 78.53z" p-id="6315" fill="#ffffff"></path></svg>