<?xml version="1.0" standalone="no"?><!DOCTYPE svg PUBLIC "-//W3C//DTD SVG 1.1//EN" "http://www.w3.org/Graphics/SVG/1.1/DTD/svg11.dtd"><svg t="1690802442608" class="icon" viewBox="0 0 1024 1024" version="1.1" xmlns="http://www.w3.org/2000/svg" p-id="3901" xmlns:xlink="http://www.w3.org/1999/xlink" width="200" height="200"><path d="M679.424 746.845091L763.345455 350.859636c7.424-34.909091-12.567273-48.570182-35.444364-40.005818l-493.614546 190.277818c-33.722182 13.125818-33.140364 32-5.701818 40.564364l126.277818 39.424 293.236364-184.576c13.707636-9.146182 26.298182-3.979636 16.011636 5.166545l-237.218909 214.248728-9.146181 130.327272a32.093091 32.093091 0 0 0 25.6-12.567272l61.696-59.415273 128 94.277818c23.435636 13.125818 40.005818 6.283636 46.289454-21.713454zM1024 512A512 512 0 1 1 512 0a512 512 0 0 1 512 512z m0 0" fill="#ffffff" p-id="3902"></path></svg>